#!OML:ASF E:\Style4\Style4.ASF
:FULLY-SPECIFIED
:DEGREES
1477
root 0.309964 17.7988 -0.840495 0.921686 -4.06868 0.998803
lowerback 4.53488 2.41928 -0.417643
upperback 0.295622 3.21998 0.758595
thorax -2.30203 1.61315 0.803717
lowerneck -1.66134 -4.39369 -5.90216
upperneck 10.2248 -5.76869 1.79788
head 3.89452 -3.00666 1.40131
rclavicle -4.03036e-014 2.78299e-015
rhumerus 0.77654 -34.2231 -75.8138
rradius 82.9967
rwrist -64.797
rhand -25.2521 27.2161
rfingers 7.12502
rthumb 1.26813 -2.75991
lclavicle -4.03036e-014 2.78299e-015
lhumerus -44.22 -39.1555 102.112
lradius 71.5165
lwrist 1.01782
lhand -10.4916 19.1539
lfingers 7.12502
lthumb 15.5102 48.5518
rfemur -11.6372 5.65076 16.4368
rtibia 30.331
rfoot -18.3036 -11.8215
rtoes -14.3557
lfemur -9.76656 -1.56431 -21.1155
ltibia 29.5308
lfoot -21.0405 10.9498
ltoes -13.4607
1478
root 0.307782 17.7981 -0.833629 0.704926 -3.95713 1.68025
lowerback 4.58294 2.39774 -1.12142
upperback 0.381264 3.15092 0.59358
thorax -2.26825 1.58448 1.03165
lowerneck -1.6457 -4.36256 -5.94616
upperneck 10.173 -5.73016 1.84952
head 3.87538 -2.9868 1.42889
rclavicle -4.39066e-014 5.56597e-015
rhumerus 1.02738 -33.3139 -75.6609
rradius 82.9563
rwrist -64.7489
rhand -25.5349 27.6534
rfingers 7.12502
rthumb 0.994961 -2.32398
lclavicle -4.39066e-014 5.56597e-015
lhumerus -44.1697 -39.0725 102.067
lradius 71.5029
lwrist 0.972551
lhand -10.4849 19.1157
lfingers 7.12502
lthumb 15.5167 48.5131
rfemur -11.473 5.44045 15.6783
rtibia 30.4751
rfoot -18.4757 -11.7014
rtoes -14.2905
lfemur -9.40004 -1.67546 -21.8838
ltibia 29.2309
lfoot -20.9428 11.0631
ltoes -13.6793
1479
root 0.300086 17.7993 -0.830861 0.616154 -4.03403 2.15885
lowerback 4.56239 2.43732 -1.66993
upperback 0.423282 3.17327 0.471976
thorax -2.23709 1.59988 1.21332
lowerneck -1.67398 -4.34062 -5.95131
upperneck 10.1684 -5.70023 1.86621
head 3.87876 -2.97135 1.43628
rclavicle -2.16924e-014 1.19271e-015
rhumerus 1.46579 -32.4825 -75.6652
rradius 82.8038
rwrist -64.5432
rhand -25.4865 27.7659
rfingers 7.12502
rthumb 1.0417 -2.21131
lclavicle -2.16924e-014 1.19271e-015
lhumerus -44.1438 -39.0031 101.992
lradius 71.5043
lwrist 0.908459
lhand -10.46 19.1993
lfingers 7.12502
lthumb 15.5407 48.5948
rfemur -11.5246 5.43252 15.1575
rtibia 30.6942
rfoot -18.6367 -11.614
rtoes -14.1301
lfemur -9.09632 -1.63376 -22.3993
ltibia 28.8049
lfoot -20.8593 11.1816
ltoes -13.9648
1480
root 0.294694 17.8004 -0.830684 0.570466 -4.12845 2.46874
lowerback 4.55096 2.4874 -1.99928
upperback 0.439159 3.22143 0.377224
thorax -2.22877 1.62634 1.29741
lowerneck -1.64513 -4.32276 -5.95338
upperneck 10.1058 -5.68118 1.90491
head 3.85173 -2.95998 1.45149
rclavicle -2.23633e-014 7.95139e-016
rhumerus 1.87685 -31.6632 -75.6818
rradius 82.6839
rwrist -64.2162
rhand -25.1352 27.5267
rfingers 7.12502
rthumb 1.38099 -2.44859
lclavicle -2.23633e-014 7.95139e-016
lhumerus -44.1366 -39.0238 101.937
lradius 71.556
lwrist 0.875292
lhand -10.5975 19.0481
lfingers 7.12502
lthumb 15.4082 48.4539
rfemur -11.6325 5.46064 14.8182
rtibia 30.9269
rfoot -18.7751 -11.5171
rtoes -14.0392
lfemur -8.83016 -1.55251 -22.7287
ltibia 28.3751
lfoot -20.6592 11.2226
ltoes -14.0628
1481
root 0.291292 17.7989 -0.828914 0.412654 -4.145 2.83831
lowerback 4.63647 2.51814 -2.36828
upperback 0.479989 3.23935 0.271375
thorax -2.24966 1.63794 1.39044
lowerneck -1.56839 -4.2984 -5.98182
upperneck 9.99227 -5.65876 1.98734
head 3.80021 -2.94601 1.48741
rclavicle -3.66509e-014 -7.15625e-015
rhumerus 2.24811 -30.7413 -75.6154
rradius 82.5594
rwrist -63.7076
rhand -24.8797 27.3701
rfingers 7.12502
rthumb 1.62776 -2.60342
lclavicle -3.66509e-014 -7.15625e-015
lhumerus -44.1486 -39.0309 101.896
lradius 71.6247
lwrist 0.870868
lhand -11.0577 18.5971
lfingers 7.12502
lthumb 14.965 48.0364
rfemur -11.5642 5.43023 14.4202
rtibia 31.08
rfoot -18.8447 -11.4806
rtoes -14.2471
lfemur -8.50464 -1.53518 -23.1357
ltibia 28.0666
lfoot -20.5028 11.2074
ltoes -13.7247
1482
root 0.288626 17.7991 -0.830327 0.376959 -4.16007 2.97932
lowerback 4.65837 2.52251 -2.50429
upperback 0.475017 3.23663 0.233397
thorax -2.27227 1.63791 1.42631
lowerneck -1.53267 -4.24643 -6.01659
upperneck 9.94645 -5.59494 2.04957
head 3.7781 -2.91311 1.51831
rclavicle 1.36664e-015 6.36111e-015
rhumerus 2.54165 -29.5987 -75.425
rradius 82.4365
rwrist -63.1632
rhand -24.699 27.3316
rfingers 7.12502
rthumb 1.80229 -2.64053
lclavicle 1.36664e-015 6.36111e-015
lhumerus -44.1743 -39.0005 101.883
lradius 71.6569
lwrist 0.977917
lhand -11.4355 18.2966
lfingers 7.12502
lthumb 14.6009 47.7627
rfemur -11.5918 5.44483 14.269
rtibia 31.1503
rfoot -18.8656 -11.4657
rtoes -14.3168
lfemur -8.37539 -1.5284 -23.2801
ltibia 27.8698
lfoot -20.491 11.2164
ltoes -13.5405
1483
root 0.285749 17.8028 -0.833617 0.451146 -4.19212 2.94964
lowerback 4.62394 2.51833 -2.45049
upperback 0.434364 3.23404 0.217918
thorax -2.29086 1.63664 1.38108
lowerneck -1.56097 -4.208 -5.9869
upperneck 9.9377 -5.54556 2.0759
head 3.77789 -2.88637 1.52363
rclavicle -2.56184e-014 5.56597e-015
rhumerus 2.83662 -28.3362 -75.2065
rradius 82.3282
rwrist -62.5731
rhand -24.5742 27.1347
rfingers 7.12502
rthumb 1.92283 -2.8364
lclavicle -2.56184e-014 5.56597e-015
lhumerus -44.1555 -39.0078 101.841
lradius 71.6665
lwrist 1.11235
lhand -11.5048 18.2542
lfingers 7.12502
lthumb 14.5342 47.7251
rfemur -11.6929 5.52803 14.3156
rtibia 31.1507
rfoot -18.8261 -11.5597
rtoes -14.605
lfemur -8.40922 -1.51271 -23.2315
ltibia 27.735
lfoot -20.4157 11.2951
ltoes -13.7111
1484
root 0.282556 17.808 -0.837335 0.520337 -4.21657 2.89207
lowerback 4.61724 2.52582 -2.32224
upperback 0.389124 3.24935 0.175337
thorax -2.3247 1.64356 1.2639
lowerneck -1.52582 -4.18632 -5.92331
upperneck 9.8504 -5.52443 2.11114
head 3.73793 -2.87155 1.5262
rclavicle 4.04527e-014 -3.97569e-015
rhumerus 3.09459 -27.0895 -74.9628
rradius 82.3027
rwrist -61.9349
rhand -24.5568 26.7757
rfingers 7.12502
rthumb 1.93956 -3.19525
lclavicle 4.04527e-014 -3.97569e-015
lhumerus -44.2022 -39.0467 101.785
lradius 71.738
lwrist 1.11317
lhand -11.4819 18.2876
lfingers 7.12502
lthumb 14.5562 47.7568
rfemur -11.7448 5.64284 14.3946
rtibia 31.0854
rfoot -18.7512 -11.6491
rtoes -14.5806
lfemur -8.4675 -1.47453 -23.1527
ltibia 27.6727
lfoot -20.2996 11.3067
ltoes -13.6968
1485
root 0.280973 17.8121 -0.841827 0.572639 -4.21623 2.86269
lowerback 4.62793 2.53603 -2.19898
upperback 0.353631 3.26742 0.120921
thorax -2.35784 1.65164 1.13667
lowerneck -1.52863 -4.18372 -5.87612
upperneck 9.80807 -5.5271 2.15729
head 3.72353 -2.86897 1.53337
rclavicle -1.26228e-014 1.98785e-015
rhumerus 3.33634 -25.8169 -74.7025
rradius 82.3163
rwrist -61.4439
rhand -24.4261 26.7174
rfingers 7.12502
rthumb 2.06584 -3.25234
lclavicle -1.26228e-014 1.98785e-015
lhumerus -44.2393 -39.0882 101.719
lradius 71.8133
lwrist 1.02206
lhand -11.5615 18.3323
lfingers 7.12502
lthumb 14.4796 47.8071
rfemur -11.7646 5.67356 14.4279
rtibia 30.981
rfoot -18.664 -11.6909
rtoes -14.5767
lfemur -8.5213 -1.49276 -23.1088
ltibia 27.6397
lfoot -20.2838 11.303
ltoes -13.7643
1486
root 0.28103 17.8156 -0.844715 0.649437 -4.23826 2.80517
lowerback 4.57202 2.54165 -2.05031
upperback 0.325548 3.28298 0.0893206
thorax -2.34579 1.65789 1.02223
lowerneck -1.53399 -4.17295 -5.79344
upperneck 9.77238 -5.51327 2.12651
head 3.70653 -2.85986 1.50903
rclavicle -1.82882e-014 -6.36111e-015
rhumerus 3.60069 -24.4627 -74.4199
rradius 82.2686
rwrist -61.0367
rhand -24.2015 26.9393
rfingers 7.12502
rthumb 2.28277 -3.02825
lclavicle -1.82882e-014 -6.36111e-015
lhumerus -44.1916 -39.097 101.629
lradius 71.8529
lwrist 0.998528
lhand -11.5165 18.3411
lfingers 7.12502
lthumb 14.5229 47.8128
rfemur -11.7986 5.66782 14.4813
rtibia 30.8525
rfoot -18.5638 -11.6746
rtoes -14.6712
lfemur -8.59951 -1.50482 -23.0471
ltibia 27.6294
lfoot -20.2801 11.3826
ltoes -14.137
1487
root 0.279776 17.8184 -0.846634 0.69003 -4.30461 2.72231
lowerback 4.55292 2.58263 -1.88831
upperback 0.30389 3.3457 0.0698538
thorax -2.34906 1.68759 0.908031
lowerneck -1.54179 -4.17328 -5.67837
upperneck 9.73262 -5.51228 2.05855
head 3.68632 -2.85723 1.46594
rclavicle -3.13334e-014 3.57812e-015
rhumerus 3.80246 -23.0624 -74.0287
rradius 82.3017
rwrist -60.4709
rhand -24.2274 27.07
rfingers 7.12502
rthumb 2.25774 -2.89777
lclavicle -3.13334e-014 3.57812e-015
lhumerus -44.1697 -39.1509 101.57
lradius 71.9306
lwrist 0.990589
lhand -11.3615 18.2641
lfingers 7.12502
lthumb 14.6722 47.725
rfemur -11.7859 5.74058 14.5774
rtibia 30.7106
rfoot -18.5086 -11.6553
rtoes -14.4628
lfemur -8.64436 -1.48748 -22.9483
ltibia 27.6502
lfoot -20.3122 11.4103
ltoes -14.1245
